<svg height="512" viewBox="0 0 512 512" width="512" xmlns="http://www.w3.org/2000/svg" xmlns:xlink="http://www.w3.org/1999/xlink"><linearGradient id="linear-gradient" gradientUnits="userSpaceOnUse" x1="66.662" x2="405.163" y1="429.55" y2="91.05"><stop offset="0" stop-color="#41dfd0"/><stop offset="1" stop-color="#ee83ef"/></linearGradient><g id="gradient"><path d="m400 364v-44h40a8 8 0 0 0 0-16h-40v-11.357l51.969-29.7a8 8 0 0 0 0-13.892l-51.969-29.694v-59.257l39.9.5h.1a8 8 0 0 0 .1-16l-40.315-.5a36.049 36.049 0 0 0 -35.785-32.1h-312a36.04 36.04 0 0 0 -36 36v216a36.04 36.04 0 0 0 36 36h312a36.04 36.04 0 0 0 36-36zm-368-216a20.023 20.023 0 0 1 20-20h312a20.023 20.023 0 0 1 20 20v.155l-138.234 110.588-.055.043a60.418 60.418 0 0 1 -75.431-.007l-.032-.025-138.248-110.599zm0 20.646 119.754 95.8-119.754 80.534zm332 215.354h-312a20.015 20.015 0 0 1 -19.987-19.748l133.048-89.471a76.352 76.352 0 0 0 85.879 0l133.047 89.47a20.015 20.015 0 0 1 -19.987 19.749zm20-96v16h-16a8 8 0 0 0 0 16h16v24.98l-119.754-80.531 119.754-95.803v55.354a8 8 0 0 0 4.031 6.946l43.844 25.054-43.844 25.054a8 8 0 0 0 -4.031 6.946zm112-102.8a8 8 0 0 1 -8 8h-64a8 8 0 0 1 0-16h64a8 8 0 0 1 8 8zm0 158.8a8 8 0 0 1 -8 8h-64a8 8 0 0 1 0-16h64a8 8 0 0 1 8 8zm-304 16a8 8 0 0 1 -8 8h-8a8 8 0 0 1 0-16h8a8 8 0 0 1 8 8zm-40 0a8 8 0 0 1 -8 8h-32a8 8 0 0 1 0-16h32a8 8 0 0 1 8 8z" fill="url(#linear-gradient)"/></g></svg>