<?xml version="1.0"?>
<svg xmlns="http://www.w3.org/2000/svg" xmlns:xlink="http://www.w3.org/1999/xlink" viewBox="0 0 64 64" width="512" height="512"><linearGradient id="a" gradientUnits="userSpaceOnUse" x1="-5.323" x2="64.262" y1="69.323" y2="-.262"><stop offset="0" stop-color="#003f8a"/><stop offset=".518" stop-color="#00d7df"/><stop offset="1" stop-color="#006df0"/></linearGradient><linearGradient id="b" x1="-6.073" x2="63.512" xlink:href="#a" y1="68.573" y2="-1.012"/><linearGradient id="c" x1="-18.823" x2="50.762" xlink:href="#a" y1="55.823" y2="-13.762"/><linearGradient id="d" x1="7.677" x2="77.262" xlink:href="#a" y1="82.323" y2="12.738"/><linearGradient id="e" x1="-2.823" x2="66.762" xlink:href="#a" y1="71.823" y2="2.238"/><linearGradient id="f" x1=".677" x2="70.262" xlink:href="#a" y1="75.323" y2="5.738"/><path d="m47 0h-30a5.006 5.006 0 0 0 -5 5v54a5.006 5.006 0 0 0 5 5h30a5.006 5.006 0 0 0 5-5v-54a5.006 5.006 0 0 0 -5-5zm3 59a3 3 0 0 1 -3 3h-30a3 3 0 0 1 -3-3v-54a3 3 0 0 1 3-3h30a3 3 0 0 1 3 3z" fill="url(#a)"/><path d="m47 7h-30a1 1 0 0 0 -1 1v45a1 1 0 0 0 1 1h30a1 1 0 0 0 1-1v-45a1 1 0 0 0 -1-1zm-1 45h-28v-43h28z" fill="url(#b)"/><path d="m28 6h8a1 1 0 0 0 0-2h-8a1 1 0 0 0 0 2z" fill="url(#c)"/><path d="m32 55a3 3 0 1 0 3 3 3 3 0 0 0 -3-3zm0 4a1 1 0 1 1 1-1 1 1 0 0 1 -1 1z" fill="url(#d)"/><path d="m21 50h2a1 1 0 0 0 0-2h-1v-3a1 1 0 0 0 -2 0v4a1 1 0 0 0 1 1z" fill="url(#e)"/><path d="m26 50h2a1 1 0 0 0 0-2h-2a1 1 0 0 0 0 2z" fill="url(#f)"/></svg>
